<svg width="40" height="40" viewBox="0 0 40 40" fill="none" xmlns="http://www.w3.org/2000/svg">
<path d="M4.97363 25.0736L14.0649 7.7498L23.0086 2.95605L25.6686 4.29855L16.7786 9.32105L25.9636 36.9311L23.0086 35.2123L16.1336 19.3661L7.10863 26.2148L4.97363 25.0736Z" fill="white"/>
<path d="M31.5499 20.5876C33.4042 20.5876 34.9074 19.1868 34.9074 17.4588C34.9074 15.7309 33.4042 14.3301 31.5499 14.3301C29.6956 14.3301 28.1924 15.7309 28.1924 17.4588C28.1924 19.1868 29.6956 20.5876 31.5499 20.5876Z" fill="white"/>
<path d="M33.9999 16.0625C33.6979 15.6339 33.2902 15.2906 32.8164 15.066C32.3426 14.8415 31.8187 14.7433 31.2958 14.7811C30.7728 14.8188 30.2685 14.9912 29.8318 15.2814C29.3951 15.5717 29.0409 15.97 28.8036 16.4375C28.5706 16.9408 28.4959 17.503 28.5894 18.0496C28.6829 18.5963 28.9403 19.1016 29.3274 19.4988C30.3892 19.5835 31.446 19.2827 32.3042 18.6516C33.1623 18.0205 33.7643 17.1014 33.9999 16.0625ZM24.9699 4.25004L23.0361 3.18879L14.6161 7.87504L15.2874 8.23754L16.5636 8.90879L18.8749 7.62504L24.9711 4.22754L24.9699 4.25004ZM25.7486 3.92754C25.7988 3.93977 25.8449 3.96471 25.8825 3.99996C25.9202 4.03522 25.9481 4.07959 25.9636 4.12879L28.7836 12.45C28.8125 12.516 28.8147 12.5906 28.7898 12.6582C28.7648 12.7258 28.7147 12.7811 28.6499 12.8125C27.5734 13.4028 26.7277 14.3393 26.2499 15.4703C25.7721 16.6013 25.6902 17.8604 26.0174 19.0438C26.4079 20.3313 27.2366 21.4417 28.3598 22.1823C29.4831 22.9229 30.8301 23.2472 32.1674 23.0988C32.2408 23.0941 32.3138 23.1123 32.3765 23.1508C32.4392 23.1893 32.4884 23.2462 32.5174 23.3138L35.4311 31.855C35.4495 31.9239 35.4464 31.9966 35.4222 32.0636C35.3981 32.1306 35.3541 32.1887 35.2961 32.23L26.3399 37.4663C26.297 37.4837 26.2512 37.493 26.2049 37.4938C26.1223 37.5078 26.0373 37.4937 25.9636 37.4538L22.8211 35.4788C22.7638 35.4491 22.7171 35.4024 22.6874 35.345L16.5499 21.2325L7.20365 26.55C7.14772 26.5781 7.08642 26.5939 7.02389 26.5963C6.96135 26.5986 6.89904 26.5876 6.84115 26.5638L4.71615 25.355C4.64666 25.3177 4.59409 25.2552 4.56922 25.1804C4.54435 25.1055 4.54906 25.024 4.5824 24.9525L13.6624 7.72254C13.6964 7.66362 13.7479 7.61684 13.8099 7.58879L22.8611 2.54004C22.9106 2.51312 22.9661 2.49902 23.0224 2.49902C23.0787 2.49902 23.1342 2.51312 23.1836 2.54004L25.7486 3.92754ZM14.5224 8.55504L14.0786 8.32754L5.32865 24.9925L6.92615 25.8925L14.4736 16.0175C14.511 15.9725 14.5584 15.9368 14.612 15.9134C14.6656 15.89 14.724 15.8794 14.7824 15.8825C14.8398 15.8929 14.8939 15.9165 14.9406 15.9514C14.9872 15.9863 15.0251 16.0317 15.0511 16.0838L23.2699 35.0188L25.4661 36.375L16.6436 10.5838L16.2686 9.50879L14.5099 8.54254L14.5224 8.55504ZM28.0586 18.4925C27.8583 17.7493 27.9151 16.9602 28.2199 16.2533C28.5246 15.5464 29.0594 14.9633 29.7374 14.5988C30.4255 14.2139 31.2185 14.0585 32.001 14.1551C32.7835 14.2518 33.5149 14.5955 34.0886 15.1363C34.738 15.7607 35.113 16.6173 35.1312 17.518C35.1495 18.4187 34.8096 19.2898 34.1861 19.94L34.0886 20.0375C33.6386 20.4684 33.0862 20.7775 32.4835 20.9355C31.8809 21.0935 31.2479 21.0953 30.6443 20.9406C30.0408 20.786 29.4866 20.4801 29.0342 20.0517C28.5818 19.6234 28.246 19.0867 28.0586 18.4925Z" fill="black"/>
</svg>
