<svg width="40" height="50" viewBox="0 0 40 50" fill="none" xmlns="http://www.w3.org/2000/svg">
<g clip-path="url(#clip0_1366_2)">
<path d="M12.5281 48.4929C14.6304 49.3336 16.9109 49.8327 19.3056 49.9157C22.4332 50.0267 25.5432 49.4037 28.3834 48.0974C25.0795 46.8075 22.0875 44.9212 19.5337 42.5757C17.8784 45.2097 15.43 47.29 12.5281 48.4929Z" fill="#FF9100"/>
<path d="M19.5334 42.5766C13.7041 37.2188 10.1679 29.4642 10.4668 20.9589C10.4765 20.6825 10.4912 20.4066 10.5084 20.1306C7.91951 19.4636 5.19883 19.4919 2.6246 20.2126C1.06851 22.9215 0.129447 26.0296 0.0124158 29.3586C-0.289459 37.9508 4.94257 45.4581 12.5279 48.4938C15.4298 47.2909 17.8779 45.2128 19.5334 42.5766Z" fill="#FFC400"/>
<path d="M19.5336 42.5763C20.8889 40.4211 21.7106 37.894 21.8062 35.1715C22.0578 28.01 17.2134 21.8495 10.5084 20.1304C10.4912 20.4063 10.4767 20.6824 10.467 20.9586C10.1681 29.4641 13.7044 37.2186 19.5336 42.5763Z" fill="#FF9100"/>
<path d="M21.0565 0C17.2377 3.04037 14.2224 7.04907 12.398 11.6671C11.3291 14.3741 10.6906 17.23 10.5054 20.1321C17.2104 21.8511 22.0549 28.0118 21.8032 35.1733C21.7076 37.8957 20.8833 40.4202 19.5305 42.5781C22.109 44.9498 25.1102 46.8225 28.3801 48.0998C35.0115 45.0536 39.7165 38.4984 39.989 30.7452C40.1654 25.7217 38.2233 21.2446 35.479 17.4655C32.5808 13.4686 21.0563 0 21.0563 0" fill="#DD2C00"/>
</g>
<defs>
<clipPath id="clip0_1366_2">
<rect width="40" height="50" fill="white"/>
</clipPath>
</defs>
</svg>
