<svg width="40" height="40" viewBox="0 0 40 40" fill="none" xmlns="http://www.w3.org/2000/svg">
<g clip-path="url(#clip0_1374_61)">
<mask id="mask0_1374_61" style="mask-type:luminance" maskUnits="userSpaceOnUse" x="0" y="0" width="40" height="40">
<path d="M20 40C31.0457 40 40 31.0457 40 20C40 8.9543 31.0457 0 20 0C8.9543 0 0 8.9543 0 20C0 31.0457 8.9543 40 20 40Z" fill="white"/>
</mask>
<g mask="url(#mask0_1374_61)">
<path d="M20 40C31.0457 40 40 31.0457 40 20C40 8.9543 31.0457 0 20 0C8.9543 0 0 8.9543 0 20C0 31.0457 8.9543 40 20 40Z" fill="black"/>
<path d="M33.2241 35.0044L15.3648 12H12V27.9933H14.6919V15.4187L31.1109 36.6322C31.8508 36.1372 32.5567 35.5934 33.2241 35.0044Z" fill="url(#paint0_linear_1374_61)"/>
<path d="M25.5557 12H28.2224V28H25.5557V12Z" fill="url(#paint1_linear_1374_61)"/>
</g>
</g>
<defs>
<linearGradient id="paint0_linear_1374_61" x1="1192.76" y1="1400.89" x2="1901.52" y2="2279.36" gradientUnits="userSpaceOnUse">
<stop stop-color="white"/>
<stop offset="1" stop-color="white" stop-opacity="0"/>
</linearGradient>
<linearGradient id="paint1_linear_1374_61" x1="158.892" y1="12" x2="154.38" y2="1186.99" gradientUnits="userSpaceOnUse">
<stop stop-color="white"/>
<stop offset="1" stop-color="white" stop-opacity="0"/>
</linearGradient>
<clipPath id="clip0_1374_61">
<rect width="40" height="40" fill="white"/>
</clipPath>
</defs>
</svg>
