<svg width="40" height="40" viewBox="0 0 40 40" fill="none" xmlns="http://www.w3.org/2000/svg">
<g clip-path="url(#clip0_1369_34)">
<path d="M30.625 0H9.375C4.19733 0 0 4.19733 0 9.375V30.625C0 35.8027 4.19733 40 9.375 40H30.625C35.8027 40 40 35.8027 40 30.625V9.375C40 4.19733 35.8027 0 30.625 0Z" fill="#007ACC"/>
<path d="M8.84542 20.1325L8.83276 21.7706H14.039V36.5642H17.7217V21.7706H22.9279V20.1642C22.9279 19.2753 22.909 18.5325 22.8835 18.5134C22.8645 18.4881 19.6962 18.4753 15.855 18.4817L8.86448 18.5007L8.84542 20.1325ZM32.276 18.4542C33.2918 18.7082 34.0665 19.159 34.7776 19.8954C35.1459 20.2892 35.6918 21.0067 35.7364 21.1781C35.749 21.2289 34.0093 22.3971 32.9554 23.051C32.9173 23.0765 32.7648 22.9114 32.5934 22.6575C32.0792 21.9082 31.5395 21.5843 30.714 21.5273C29.5014 21.4446 28.7204 22.0796 28.7268 23.14C28.7268 23.451 28.7712 23.6351 28.8982 23.8892C29.1648 24.4415 29.6601 24.7717 31.2157 25.4446C34.0792 26.6765 35.3045 27.4892 36.0665 28.6446C36.9173 29.9335 37.1078 31.9907 36.53 33.5209C35.8951 35.1843 34.3204 36.3145 32.1045 36.6892C31.4189 36.8098 29.7934 36.7907 29.057 36.6575C27.4506 36.3717 25.9268 35.5781 24.9871 34.5368C24.6189 34.1304 23.9014 33.0701 23.9459 32.9939C23.9648 32.9685 24.13 32.867 24.314 32.759C24.4918 32.6575 25.165 32.2701 25.7998 31.9018L26.949 31.2351L27.1903 31.5907C27.5268 32.105 28.2632 32.8098 28.7078 33.0446C29.9839 33.7178 31.7364 33.6225 32.5998 32.8479C32.9681 32.5114 33.1204 32.1621 33.1204 31.6479C33.1204 31.1843 33.0632 30.9812 32.822 30.632C32.5109 30.1876 31.876 29.8129 30.0728 29.032C28.0093 28.1431 27.1204 27.5907 26.3078 26.7145C25.8379 26.2067 25.3934 25.3939 25.2093 24.7145C25.057 24.1495 25.0189 22.7335 25.1395 22.1621C25.5648 20.1685 27.0696 18.7781 29.241 18.3653C29.9459 18.232 31.5839 18.2828 32.276 18.4542Z" fill="white"/>
</g>
<defs>
<clipPath id="clip0_1369_34">
<rect width="40" height="40" fill="white"/>
</clipPath>
</defs>
</svg>
